<svg width="24" height="24" viewBox="0 0 24 24" fill="none" xmlns="http://www.w3.org/2000/svg">
<path fill-rule="evenodd" clip-rule="evenodd" d="M20 6.25C20.4142 6.25 20.75 6.58579 20.75 7V9.25H23C23.4142 9.25 23.75 9.58579 23.75 10C23.75 10.4142 23.4142 10.75 23 10.75H20.75V13C20.75 13.4142 20.4142 13.75 20 13.75C19.5858 13.75 19.25 13.4142 19.25 13V10.75H17C16.5858 10.75 16.25 10.4142 16.25 10C16.25 9.58579 16.5858 9.25 17 9.25H19.25V7C19.25 6.58579 19.5858 6.25 20 6.25Z" fill="black"/>
<path fill-rule="evenodd" clip-rule="evenodd" d="M8 12.75C4.54822 12.75 1.75 15.5482 1.75 19V20C1.75 20.4142 1.41421 20.75 1 20.75C0.585786 20.75 0.25 20.4142 0.25 20V19C0.25 14.7198 3.71979 11.25 8 11.25C12.2802 11.25 15.75 14.7198 15.75 19V20C15.75 20.4142 15.4142 20.75 15 20.75C14.5858 20.75 14.25 20.4142 14.25 20V19C14.25 15.5482 11.4518 12.75 8 12.75Z" fill="black"/>
<path fill-rule="evenodd" clip-rule="evenodd" d="M8 4.75C6.20507 4.75 4.75 6.20507 4.75 8C4.75 9.79493 6.20507 11.25 8 11.25C9.79493 11.25 11.25 9.79493 11.25 8C11.25 6.20507 9.79493 4.75 8 4.75ZM3.25 8C3.25 5.37665 5.37665 3.25 8 3.25C10.6234 3.25 12.75 5.37665 12.75 8C12.75 10.6234 10.6234 12.75 8 12.75C5.37665 12.75 3.25 10.6234 3.25 8Z" fill="black"/>
</svg>
