<svg width="16" height="16" viewBox="0 0 16 16" fill="none" xmlns="http://www.w3.org/2000/svg">
<path fill-rule="evenodd" clip-rule="evenodd" d="M4.66667 0.833496C4.94281 0.833496 5.16667 1.05735 5.16667 1.3335V4.00016C5.16667 4.27631 4.94281 4.50016 4.66667 4.50016C4.39052 4.50016 4.16667 4.27631 4.16667 4.00016V3.16683H3.33333C2.8731 3.16683 2.5 3.53993 2.5 4.00016V6.16683H13.5V4.00016C13.5 3.53992 13.1269 3.16683 12.6667 3.16683H12.3333C12.0572 3.16683 11.8333 2.94297 11.8333 2.66683C11.8333 2.39069 12.0572 2.16683 12.3333 2.16683H12.6667C13.6792 2.16683 14.5 2.98765 14.5 4.00016V12.6668C14.5 13.6794 13.6792 14.5002 12.6667 14.5002H3.33333C2.32082 14.5002 1.5 13.6794 1.5 12.6668V4.00016C1.5 2.98764 2.32081 2.16683 3.33333 2.16683H4.16667V1.3335C4.16667 1.05735 4.39052 0.833496 4.66667 0.833496ZM13.5 7.16683H2.5V12.6668C2.5 13.1271 2.87309 13.5002 3.33333 13.5002H12.6667C13.1269 13.5002 13.5 13.1271 13.5 12.6668V7.16683ZM10 0.833496C10.2761 0.833496 10.5 1.05735 10.5 1.3335V4.00016C10.5 4.27631 10.2761 4.50016 10 4.50016C9.72386 4.50016 9.5 4.27631 9.5 4.00016V3.16683H7C6.72386 3.16683 6.5 2.94297 6.5 2.66683C6.5 2.39069 6.72386 2.16683 7 2.16683H9.5V1.3335C9.5 1.05735 9.72386 0.833496 10 0.833496Z" fill="black"/>
</svg>
