<svg width="24" height="24" viewBox="0 0 24 24" fill="none" xmlns="http://www.w3.org/2000/svg">
<path d="M7 15C7.55228 15 8 14.5523 8 14C8 13.4477 7.55228 13 7 13C6.44772 13 6 13.4477 6 14C6 14.5523 6.44772 15 7 15Z" fill="black"/>
<path fill-rule="evenodd" clip-rule="evenodd" d="M7 13.75C6.86193 13.75 6.75 13.8619 6.75 14C6.75 14.1381 6.86193 14.25 7 14.25C7.13807 14.25 7.25 14.1381 7.25 14C7.25 13.8619 7.13807 13.75 7 13.75ZM5.25 14C5.25 13.0335 6.0335 12.25 7 12.25C7.9665 12.25 8.75 13.0335 8.75 14C8.75 14.9665 7.9665 15.75 7 15.75C6.0335 15.75 5.25 14.9665 5.25 14Z" fill="black"/>
<path fill-rule="evenodd" clip-rule="evenodd" d="M1.25 5.6C1.25 4.85441 1.85442 4.25 2.6 4.25H21.4C22.1456 4.25 22.75 4.85442 22.75 5.6V18.4C22.75 19.1456 22.1456 19.75 21.4 19.75H2.6C1.85441 19.75 1.25 19.1456 1.25 18.4V5.6ZM2.75 5.75V8.25H21.25V5.75H2.75ZM21.25 9.75H2.75V18.25H21.25V9.75Z" fill="black"/>
</svg>
