<svg width="24" height="24" viewBox="0 0 24 24" fill="none" xmlns="http://www.w3.org/2000/svg">
<path fill-rule="evenodd" clip-rule="evenodd" d="M1.25 5.6C1.25 4.85441 1.85442 4.25 2.6 4.25H21.4C22.1456 4.25 22.75 4.85442 22.75 5.6V18.4C22.75 19.1456 22.1456 19.75 21.4 19.75H2.6C1.85441 19.75 1.25 19.1456 1.25 18.4V5.6ZM2.75 5.75V8.25H16C16.4142 8.25 16.75 8.58579 16.75 9C16.75 9.41421 16.4142 9.75 16 9.75H2.75V18.25H21.25V5.75H2.75Z" fill="black"/>
<path d="M15 12.6C15 12.2686 15.2686 12 15.6 12H18.4C18.7314 12 19 12.2686 19 12.6V15.4C19 15.7314 18.7314 16 18.4 16H15.6C15.2686 16 15 15.7314 15 15.4V12.6Z" fill="black"/>
</svg>
