<svg width="17" height="16" viewBox="0 0 17 16" fill="none" xmlns="http://www.w3.org/2000/svg">
<path fill-rule="evenodd" clip-rule="evenodd" d="M14.1868 10.9797C14.3821 11.175 14.3821 11.4915 14.1868 11.6868L12.1868 13.6868C11.9915 13.8821 11.675 13.8821 11.4797 13.6868C11.2844 13.4915 11.2844 13.175 11.4797 12.9797L12.6261 11.8333L3.16659 11.8333C2.89044 11.8333 2.66659 11.6094 2.66659 11.3333C2.66659 11.0571 2.89044 10.8333 3.16659 10.8333L12.6261 10.8333L11.4797 9.68681C11.2844 9.49154 11.2844 9.17496 11.4797 8.9797C11.675 8.78444 11.9915 8.78444 12.1868 8.9797L14.1868 10.9797Z" fill="#1F2836"/>
<path fill-rule="evenodd" clip-rule="evenodd" d="M2.81319 4.31319C2.61793 4.50846 2.61793 4.82504 2.81319 5.0203L4.81319 7.0203C5.00846 7.21556 5.32504 7.21556 5.5203 7.0203C5.71556 6.82504 5.71556 6.50846 5.5203 6.31319L4.37385 5.16675L13.8334 5.16675C14.1096 5.16675 14.3334 4.94289 14.3334 4.66675C14.3334 4.39061 14.1096 4.16675 13.8334 4.16675L4.37385 4.16675L5.5203 3.0203C5.71556 2.82504 5.71556 2.50846 5.5203 2.31319C5.32504 2.11793 5.00846 2.11793 4.81319 2.31319L2.81319 4.31319Z" fill="#1F2836"/>
</svg>
