<svg width="24" height="24" viewBox="0 0 24 24" fill="none" xmlns="http://www.w3.org/2000/svg">
<path fill-rule="evenodd" clip-rule="evenodd" d="M12.0001 2.25C12.4143 2.25 12.7501 2.58579 12.7501 3V4.81396C14.2294 5.01204 15.736 5.67527 16.6842 6.6235C16.9771 6.91639 16.9771 7.39126 16.6842 7.68416C16.3913 7.97705 15.9165 7.97705 15.6236 7.68415C14.8319 6.89247 13.3551 6.29111 11.9799 6.2541C11.1703 6.23231 10.4934 6.40895 10.0372 6.75448C9.61238 7.07627 9.28854 7.61148 9.28854 8.53845C9.28854 8.9373 9.3782 9.22358 9.50976 9.444C9.64392 9.66876 9.84667 9.86652 10.1311 10.0475C10.7299 10.4286 11.5598 10.662 12.5436 10.9302C12.564 10.9358 12.5846 10.9414 12.6052 10.947C13.5113 11.194 14.556 11.4787 15.3666 11.9946C15.7962 12.2679 16.1884 12.6219 16.4707 13.0948C16.7556 13.5721 16.9039 14.1296 16.9039 14.7692C16.9039 16.2 16.2765 17.2754 15.3048 17.9559C14.5699 18.4706 13.6698 18.7397 12.7501 18.8129V20.9999C12.7501 21.4141 12.4143 21.7499 12.0001 21.7499C11.5858 21.7499 11.2501 21.4141 11.2501 20.9999V18.7659C9.71299 18.5519 8.16711 17.8316 7.24624 16.6038C6.99771 16.2724 7.06486 15.8023 7.39624 15.5538C7.72761 15.3053 8.19771 15.3724 8.44624 15.7038C9.16504 16.6622 10.5801 17.2783 12.027 17.3303C12.9765 17.3644 13.8407 17.15 14.4444 16.7272C15.0179 16.3256 15.4039 15.7074 15.4039 14.7692C15.4039 14.3703 15.3142 14.084 15.1827 13.8636C15.0485 13.6389 14.8458 13.4411 14.5613 13.2601C13.9626 12.8791 13.1326 12.6457 12.1489 12.3774C12.1284 12.3718 12.1079 12.3662 12.0872 12.3606C11.1811 12.1136 10.1364 11.8289 9.32578 11.313C8.89627 11.0397 8.50407 10.6858 8.22176 10.2128C7.93686 9.73551 7.78854 9.17805 7.78854 8.53845C7.78854 7.20847 8.28223 6.20206 9.13153 5.55876C9.74371 5.09508 10.488 4.85971 11.2501 4.78211V3C11.2501 2.58579 11.5858 2.25 12.0001 2.25Z" fill="black"/>
</svg>
