<svg width="16" height="17" viewBox="0 0 16 17" fill="none" xmlns="http://www.w3.org/2000/svg">
<g clip-path="url(#clip0_1752_6274)">
<path fill-rule="evenodd" clip-rule="evenodd" d="M14.2194 6.15336C14.4147 5.9581 14.4147 5.64151 14.2194 5.44625L10.9196 2.14642C10.7244 1.95116 10.4078 1.95116 10.2125 2.14642L1.92249 10.4364C1.7037 10.6552 1.58078 10.952 1.58078 11.2614L1.58078 14.2851C1.58078 14.5612 1.80464 14.7851 2.08078 14.7851L5.10447 14.7851C5.41389 14.7851 5.71063 14.6622 5.92943 14.4434L14.2194 6.15336ZM13.1588 5.7998L11.9803 6.97832L9.38755 4.38559L10.5661 3.20708L13.1588 5.7998ZM8.68044 5.0927L11.2732 7.68542L5.22232 13.7363C5.19106 13.7675 5.14867 13.7851 5.10447 13.7851L2.58078 13.7851L2.58078 11.2614C2.58078 11.2172 2.59834 11.1748 2.62959 11.1435L8.68044 5.0927Z" fill="#1F2836"/>
</g>
<defs>
<clipPath id="clip0_1752_6274">
<rect width="16" height="16" fill="white" transform="translate(0 0.5)"/>
</clipPath>
</defs>
</svg>
