<svg width="16" height="17" viewBox="0 0 16 17" fill="none" xmlns="http://www.w3.org/2000/svg">
<path fill-rule="evenodd" clip-rule="evenodd" d="M8.00008 2.3335C11.4058 2.3335 14.1667 5.09441 14.1667 8.50016C14.1667 11.9059 11.4058 14.6668 8.00008 14.6668C4.59433 14.6668 1.83341 11.9059 1.83341 8.50016C1.83341 5.09441 4.59433 2.3335 8.00008 2.3335ZM15.1667 8.50016C15.1667 4.54212 11.9581 1.3335 8.00008 1.3335C4.04204 1.3335 0.833414 4.54212 0.833414 8.50016C0.833414 12.4582 4.04204 15.6668 8.00008 15.6668C11.9581 15.6668 15.1667 12.4582 15.1667 8.50016Z" fill="#1F2836"/>
<path fill-rule="evenodd" clip-rule="evenodd" d="M5.39842 9.86448C5.39813 9.8641 5.39808 9.86404 5.39826 9.86427L5.39833 9.86436C5.23223 9.64533 4.92016 9.60139 4.69997 9.76653C4.47906 9.93222 4.43429 10.2456 4.59997 10.4665L4.99997 10.1665C4.59997 10.4665 4.60012 10.4667 4.60026 10.4669L4.60058 10.4673L4.60129 10.4683L4.60299 10.4705L4.60754 10.4764C4.61108 10.481 4.61566 10.4869 4.62125 10.4939C4.63245 10.5078 4.64777 10.5265 4.66722 10.5492C4.70609 10.5946 4.76163 10.6561 4.83392 10.7284C4.97824 10.8727 5.19093 11.0614 5.47262 11.2492C6.03794 11.6261 6.88282 11.9999 7.99997 11.9999C9.11712 11.9999 9.962 11.6261 10.5273 11.2492C10.809 11.0614 11.0217 10.8727 11.166 10.7284C11.2383 10.6561 11.2939 10.5946 11.3327 10.5492C11.3522 10.5265 11.3675 10.5078 11.3787 10.4939C11.3843 10.4869 11.3889 10.481 11.3924 10.4764L11.397 10.4705L11.3987 10.4683L11.3994 10.4673L11.3997 10.4669C11.3998 10.4667 11.4 10.4665 11 10.1665L11.4 10.4665C11.5657 10.2456 11.5209 9.93222 11.3 9.76653C11.0798 9.6014 10.7677 9.64533 10.6016 9.86435M5.3997 9.86617L5.39945 9.86584L5.39902 9.86527L5.39842 9.86448" fill="#1F2836"/>
<path d="M10.3334 6.50016C10.1493 6.50016 10.0001 6.35092 10.0001 6.16683C10.0001 5.98273 10.1493 5.8335 10.3334 5.8335C10.5175 5.8335 10.6667 5.98273 10.6667 6.16683C10.6667 6.35092 10.5175 6.50016 10.3334 6.50016Z" fill="#1F2836"/>
<path fill-rule="evenodd" clip-rule="evenodd" d="M10.3334 6.3335C10.2414 6.3335 10.1667 6.25888 10.1667 6.16683C10.1667 6.07478 10.2414 6.00016 10.3334 6.00016C10.4255 6.00016 10.5001 6.07478 10.5001 6.16683C10.5001 6.25888 10.4255 6.3335 10.3334 6.3335ZM11.1667 6.16683C11.1667 5.70659 10.7937 5.3335 10.3334 5.3335C9.87318 5.3335 9.50008 5.70659 9.50008 6.16683C9.50008 6.62707 9.87318 7.00016 10.3334 7.00016C10.7937 7.00016 11.1667 6.62707 11.1667 6.16683Z" fill="#1F2836"/>
<path d="M5.66667 6.50016C5.48257 6.50016 5.33333 6.35092 5.33333 6.16683C5.33333 5.98273 5.48257 5.8335 5.66667 5.8335C5.85076 5.8335 6 5.98273 6 6.16683C6 6.35092 5.85076 6.50016 5.66667 6.50016Z" fill="#1F2836"/>
<path fill-rule="evenodd" clip-rule="evenodd" d="M5.66667 6.3335C5.57462 6.3335 5.5 6.25888 5.5 6.16683C5.5 6.07478 5.57462 6.00016 5.66667 6.00016C5.75871 6.00016 5.83333 6.07478 5.83333 6.16683C5.83333 6.25888 5.75871 6.3335 5.66667 6.3335ZM6.5 6.16683C6.5 5.70659 6.1269 5.3335 5.66667 5.3335C5.20643 5.3335 4.83333 5.70659 4.83333 6.16683C4.83333 6.62707 5.20643 7.00016 5.66667 7.00016C6.1269 7.00016 6.5 6.62707 6.5 6.16683Z" fill="#1F2836"/>
</svg>
