<svg width="24" height="24" viewBox="0 0 24 24" fill="none" xmlns="http://www.w3.org/2000/svg">
<path fill-rule="evenodd" clip-rule="evenodd" d="M2.46967 2.46967C2.76256 2.17678 3.23744 2.17678 3.53033 2.46967L21.5303 20.4697C21.8232 20.7626 21.8232 21.2374 21.5303 21.5303C21.2374 21.8232 20.7626 21.8232 20.4697 21.5303L2.46967 3.53033C2.17678 3.23744 2.17678 2.76256 2.46967 2.46967Z" fill="black"/>
<path fill-rule="evenodd" clip-rule="evenodd" d="M10.9963 10.1147C11.3069 10.3888 11.3364 10.8628 11.0623 11.1733C10.8674 11.3941 10.75 11.6824 10.75 11.9999C10.75 12.6903 11.3096 13.2499 12 13.2499C12.3175 13.2499 12.6058 13.1325 12.8266 12.9376C13.1372 12.6635 13.6111 12.6931 13.8852 13.0036C14.1593 13.3142 14.1298 13.7881 13.8192 14.0622C13.3349 14.4897 12.6969 14.7499 12 14.7499C10.4812 14.7499 9.25 13.5187 9.25 11.9999C9.25 11.303 9.51022 10.665 9.9377 10.1807C10.2118 9.87016 10.6857 9.84061 10.9963 10.1147Z" fill="black"/>
<path fill-rule="evenodd" clip-rule="evenodd" d="M7.97605 7.13068C8.21377 7.4699 8.13148 7.93759 7.79227 8.1753C6.34994 9.18605 5.10922 10.6018 3.92836 12.0468C4.80018 13.3203 5.94557 14.5632 7.25485 15.515C8.71857 16.579 10.345 17.25 12 17.25C13.3792 17.25 14.7385 16.7845 16.0036 16.0109C16.357 15.7949 16.8186 15.9062 17.0347 16.2595C17.2508 16.6129 17.1395 17.0746 16.7861 17.2907C15.3482 18.1699 13.7207 18.75 12 18.75C9.93668 18.75 8.00742 17.9165 6.37286 16.7283C4.73681 15.539 3.35379 13.9651 2.36584 12.4005C2.19433 12.1288 2.21485 11.7781 2.41688 11.5284C3.68966 9.95479 5.15131 8.19437 6.93144 6.9469C7.27065 6.70919 7.73834 6.79147 7.97605 7.13068Z" fill="black"/>
<path fill-rule="evenodd" clip-rule="evenodd" d="M11.25 6C11.25 5.58579 11.5858 5.25 12 5.25C16.4201 5.25 19.3286 8.74087 21.5831 11.5283C21.7851 11.7781 21.8057 12.1288 21.6341 12.4004C21.2998 12.9299 20.9213 13.4589 20.5044 13.9726C20.2433 14.2942 19.771 14.3434 19.4494 14.0824C19.1278 13.8213 19.0786 13.349 19.3396 13.0274C19.6012 12.7051 19.8458 12.3767 20.0715 12.0469C17.829 9.30551 15.4204 6.75 12 6.75C11.5858 6.75 11.25 6.41421 11.25 6Z" fill="black"/>
</svg>
