<svg width="24" height="24" viewBox="0 0 24 24" fill="none" xmlns="http://www.w3.org/2000/svg">
<path d="M21 12L21.6342 12.4004C21.8057 12.1288 21.7852 11.7781 21.5831 11.5283L21 12ZM3 12L2.41687 11.5283C2.21485 11.7781 2.19433 12.1288 2.36584 12.4004L3 12ZM12 14.75C13.5188 14.75 14.75 13.5188 14.75 12H13.25C13.25 12.6904 12.6904 13.25 12 13.25V14.75ZM14.75 12C14.75 10.4812 13.5188 9.25 12 9.25V10.75C12.6904 10.75 13.25 11.3096 13.25 12H14.75ZM12 9.25C10.4812 9.25 9.25 10.4812 9.25 12H10.75C10.75 11.3096 11.3096 10.75 12 10.75V9.25ZM9.25 12C9.25 13.5188 10.4812 14.75 12 14.75V13.25C11.3096 13.25 10.75 12.6904 10.75 12H9.25ZM20.3658 11.5996C19.4652 13.0259 18.2074 14.452 16.7451 15.515C15.2814 16.579 13.655 17.25 12 17.25V18.75C14.0633 18.75 15.9926 17.9165 17.6271 16.7283C19.2632 15.539 20.6462 13.9651 21.6342 12.4004L20.3658 11.5996ZM12 17.25C10.345 17.25 8.71856 16.579 7.25484 15.515C5.7926 14.452 4.53477 13.0259 3.63416 11.5996L2.36584 12.4004C3.35379 13.9651 4.73681 15.539 6.37285 16.7283C8.00742 17.9165 9.93667 18.75 12 18.75V17.25ZM3.58313 12.4717C5.92563 9.57557 8.40339 6.75 12 6.75V5.25C7.57987 5.25 4.67147 8.74093 2.41687 11.5283L3.58313 12.4717ZM12 6.75C15.5966 6.75 18.0744 9.57553 20.4169 12.4717L21.5831 11.5283C19.3286 8.74087 16.4202 5.25 12 5.25V6.75Z" fill="#677587"/>
</svg>
