<svg width="16" height="17" viewBox="0 0 16 17" fill="none" xmlns="http://www.w3.org/2000/svg">
<path fill-rule="evenodd" clip-rule="evenodd" d="M2.5 3.83333C2.5 3.3731 2.8731 3 3.33333 3L12.6667 3C13.1269 3 13.5 3.3731 13.5 3.83333V13.1667C13.5 13.6269 13.1269 14 12.6667 14H3.33333C2.8731 14 2.5 13.6269 2.5 13.1667L2.5 3.83333ZM3.33333 2C2.32081 2 1.5 2.82081 1.5 3.83333L1.5 13.1667C1.5 14.1792 2.32081 15 3.33333 15H12.6667C13.6792 15 14.5 14.1792 14.5 13.1667V3.83333C14.5 2.82081 13.6792 2 12.6667 2L3.33333 2Z" fill="#1F2836"/>
<path fill-rule="evenodd" clip-rule="evenodd" d="M4.16675 5.1665C4.16675 4.89036 4.39061 4.6665 4.66675 4.6665L11.3334 4.6665C11.6096 4.6665 11.8334 4.89036 11.8334 5.1665C11.8334 5.44265 11.6096 5.6665 11.3334 5.6665L4.66675 5.6665C4.39061 5.6665 4.16675 5.44265 4.16675 5.1665Z" fill="#1F2836"/>
<path fill-rule="evenodd" clip-rule="evenodd" d="M4.16675 8.5C4.16675 8.22386 4.39061 8 4.66675 8L11.3334 8C11.6096 8 11.8334 8.22386 11.8334 8.5C11.8334 8.77614 11.6096 9 11.3334 9L4.66675 9C4.39061 9 4.16675 8.77614 4.16675 8.5Z" fill="#1F2836"/>
<path fill-rule="evenodd" clip-rule="evenodd" d="M4.16675 11.8335C4.16675 11.5574 4.39061 11.3335 4.66675 11.3335L8.66675 11.3335C8.94289 11.3335 9.16675 11.5574 9.16675 11.8335C9.16675 12.1096 8.94289 12.3335 8.66675 12.3335L4.66675 12.3335C4.39061 12.3335 4.16675 12.1096 4.16675 11.8335Z" fill="#1F2836"/>
</svg>
