<svg width="24" height="24" viewBox="0 0 24 24" fill="none" xmlns="http://www.w3.org/2000/svg">
<path fill-rule="evenodd" clip-rule="evenodd" d="M2.36015 9.89098C2.14415 9.53754 2.25558 9.07592 2.60902 8.85993L11.609 3.35993C11.8491 3.21321 12.1511 3.21321 12.3912 3.35993L21.3912 8.85993C21.7446 9.07592 21.8561 9.53754 21.6401 9.89098C21.4241 10.2444 20.9625 10.3558 20.609 10.1399L12.0001 4.87885L3.39119 10.1399C3.03775 10.3558 2.57614 10.2444 2.36015 9.89098Z" fill="black"/>
<path fill-rule="evenodd" clip-rule="evenodd" d="M5 12.25C5.41421 12.25 5.75 12.5858 5.75 13V19.25H18.25V13C18.25 12.5858 18.5858 12.25 19 12.25C19.4142 12.25 19.75 12.5858 19.75 13V19.4C19.75 20.1456 19.1456 20.75 18.4 20.75H5.6C4.85442 20.75 4.25 20.1456 4.25 19.4V13C4.25 12.5858 4.58579 12.25 5 12.25Z" fill="black"/>
</svg>
