<svg width="24" height="24" viewBox="0 0 24 24" fill="none" xmlns="http://www.w3.org/2000/svg">
<path fill-rule="evenodd" clip-rule="evenodd" d="M11.6241 3.35093C11.8565 3.21636 12.1432 3.21636 12.3757 3.35093L21.8757 8.85093C22.2341 9.05847 22.3565 9.51731 22.1489 9.87578C21.9414 10.2342 21.4826 10.3566 21.1241 10.1491L11.9999 4.86662L2.87566 10.1491C2.51719 10.3566 2.05835 10.2342 1.85081 9.87578C1.64327 9.51731 1.76563 9.05847 2.1241 8.85093L11.6241 3.35093Z" fill="black"/>
<path fill-rule="evenodd" clip-rule="evenodd" d="M12 15.75C9.65279 15.75 7.75 17.6528 7.75 20V21H6.25V20C6.25 16.8244 8.82436 14.25 12 14.25C15.1756 14.25 17.75 16.8244 17.75 20V21H16.25V20C16.25 17.6528 14.3472 15.75 12 15.75Z" fill="black"/>
<path fill-rule="evenodd" clip-rule="evenodd" d="M12 9.75C10.7574 9.75 9.75 10.7574 9.75 12C9.75 13.2426 10.7574 14.25 12 14.25C13.2426 14.25 14.25 13.2426 14.25 12C14.25 10.7574 13.2426 9.75 12 9.75ZM8.25 12C8.25 9.92893 9.92893 8.25 12 8.25C14.0711 8.25 15.75 9.92893 15.75 12C15.75 14.0711 14.0711 15.75 12 15.75C9.92893 15.75 8.25 14.0711 8.25 12Z" fill="black"/>
</svg>
