<svg width="24" height="24" viewBox="0 0 24 24" fill="none" xmlns="http://www.w3.org/2000/svg">
<path fill-rule="evenodd" clip-rule="evenodd" d="M12 2.75C6.89137 2.75 2.75 6.89137 2.75 12C2.75 17.1086 6.89137 21.25 12 21.25C17.1086 21.25 21.25 17.1086 21.25 12C21.25 6.89137 17.1086 2.75 12 2.75ZM1.25 12C1.25 6.06294 6.06294 1.25 12 1.25C17.9371 1.25 22.75 6.06294 22.75 12C22.75 17.9371 17.9371 22.75 12 22.75C6.06294 22.75 1.25 17.9371 1.25 12Z" fill="black"/>
<path fill-rule="evenodd" clip-rule="evenodd" d="M12.5465 1.45206C12.8763 1.20155 13.3468 1.2659 13.5973 1.59578L13 2.04936C13.5973 1.59578 13.5975 1.59601 13.5977 1.59625L13.5981 1.59682L13.5992 1.59822L13.6021 1.60212L13.6112 1.61427C13.6186 1.6243 13.6288 1.63818 13.6416 1.65585C13.6671 1.69119 13.703 1.74171 13.7477 1.80696C13.8371 1.93743 13.9619 2.12691 14.1102 2.3717C14.4067 2.86103 14.7982 3.57291 15.1886 4.47746C15.9689 6.28526 16.75 8.87477 16.75 12C16.75 15.1252 15.9689 17.7147 15.1886 19.5225C14.7982 20.4271 14.4067 21.1389 14.1102 21.6283C13.9619 21.873 13.8371 22.0625 13.7477 22.193C13.703 22.2582 13.6671 22.3088 13.6416 22.3441C13.6288 22.3618 13.6186 22.3757 13.6112 22.3857L13.6021 22.3978L13.5992 22.4017L13.5981 22.4031L13.5977 22.4037C13.5975 22.404 13.5973 22.4042 13 21.9506L13.5973 22.4042C13.3468 22.7341 12.8763 22.7984 12.5465 22.5479C12.2169 22.2976 12.1523 21.8277 12.4021 21.4979C12.4022 21.4978 12.4023 21.4977 12.4023 21.4976C12.4024 21.4975 12.4024 21.4975 12.4024 21.4974L12.4027 21.497L12.4061 21.4925L12.4259 21.4654C12.4443 21.44 12.4729 21.3998 12.5102 21.3453C12.5849 21.2362 12.6945 21.0702 12.8274 20.8509C13.0933 20.412 13.4519 19.7612 13.8114 18.9281C14.5312 17.2606 15.25 14.8748 15.25 12C15.25 9.1252 14.5312 6.73939 13.8114 5.07188C13.4519 4.23877 13.0933 3.588 12.8274 3.14908C12.6945 2.92975 12.5849 2.76372 12.5102 2.6547C12.4729 2.6002 12.4443 2.55999 12.4259 2.53453L12.4061 2.50748L12.4027 2.50293L12.4024 2.50255C12.1523 2.17269 12.2167 1.70246 12.5465 1.45206ZM12.402 2.50195L12.4022 2.50226L12.4023 2.50237C12.4021 2.50215 12.402 2.50201 12.402 2.50195Z" fill="black"/>
<path fill-rule="evenodd" clip-rule="evenodd" d="M11 2.04931C10.4027 1.59573 10.4025 1.59596 10.4023 1.5962L10.4019 1.59677L10.4009 1.59817L10.3979 1.60207L10.3889 1.61422C10.3814 1.62424 10.3712 1.63812 10.3585 1.6558C10.3329 1.69114 10.2971 1.74166 10.2524 1.80691C10.163 1.93737 10.0382 2.12686 9.88983 2.37165C9.59331 2.86097 9.20182 3.57286 8.8114 4.47741C8.03113 6.28521 7.25 8.87472 7.25 11.9999C7.25 15.1251 8.03113 17.7146 8.8114 19.5225C9.20182 20.427 9.5933 21.1389 9.88983 21.6282C10.0382 21.873 10.163 22.0625 10.2524 22.193C10.2971 22.2582 10.3329 22.3087 10.3585 22.3441C10.3712 22.3617 10.3814 22.3756 10.3889 22.3856L10.3979 22.3978L10.4008 22.4017L10.4019 22.4031L10.4023 22.4037C10.4025 22.4039 10.4027 22.4041 11 21.9506L10.4027 22.4041C10.6532 22.734 11.1237 22.7984 11.4536 22.5479C11.7833 22.2975 11.8478 21.8272 11.5976 21.4974L11.5973 21.497L11.5939 21.4924L11.5742 21.4654C11.5558 21.4399 11.5272 21.3997 11.4898 21.3452C11.4151 21.2362 11.3056 21.0702 11.1727 20.8508C10.9067 20.4119 10.5482 19.7611 10.1886 18.928C9.46887 17.2605 8.75 14.8747 8.75 11.9999C8.75 9.12514 9.46887 6.73934 10.1886 5.07183C10.5482 4.23872 10.9067 3.58795 11.1727 3.14903C11.3056 2.9297 11.4151 2.76367 11.4898 2.65465C11.5272 2.60015 11.5558 2.55994 11.5742 2.53448L11.5939 2.50743L11.5976 2.5025C11.5975 2.50268 11.5973 2.50288 11 2.04931Z" fill="black"/>
<path fill-rule="evenodd" clip-rule="evenodd" d="M1.87964 15.5C1.87964 15.0858 2.21543 14.75 2.62964 14.75H21.3704C21.7846 14.75 22.1204 15.0858 22.1204 15.5C22.1204 15.9142 21.7846 16.25 21.3704 16.25H2.62964C2.21543 16.25 1.87964 15.9142 1.87964 15.5Z" fill="black"/>
<path fill-rule="evenodd" clip-rule="evenodd" d="M1.87964 8.5C1.87964 8.08579 2.21543 7.75 2.62964 7.75H21.3704C21.7846 7.75 22.1204 8.08579 22.1204 8.5C22.1204 8.91421 21.7846 9.25 21.3704 9.25H2.62964C2.21543 9.25 1.87964 8.91421 1.87964 8.5Z" fill="black"/>
</svg>
