<svg width="24" height="25" viewBox="0 0 24 25" fill="none" xmlns="http://www.w3.org/2000/svg">
<path fill-rule="evenodd" clip-rule="evenodd" d="M19.5303 12.4404C19.8232 12.7333 19.8232 13.2081 19.5303 13.501L16.5303 16.501C16.2374 16.7939 15.7626 16.7939 15.4697 16.501C15.1768 16.2081 15.1768 15.7333 15.4697 15.4404L17.1893 13.7207H12C11.5858 13.7207 11.25 13.3849 11.25 12.9707C11.25 12.5565 11.5858 12.2207 12 12.2207H17.1893L15.4697 10.501C15.1768 10.2081 15.1768 9.73327 15.4697 9.44037C15.7626 9.14748 16.2374 9.14748 16.5303 9.44037L19.5303 12.4404Z" fill="black"/>
<path fill-rule="evenodd" clip-rule="evenodd" d="M7 4.7207C6.30964 4.7207 5.75 5.28035 5.75 5.9707V19.9707C5.75 20.6611 6.30964 21.2207 7 21.2207H17C17.6904 21.2207 18.25 20.6611 18.25 19.9707V18.9707C18.25 18.5565 18.5858 18.2207 19 18.2207C19.4142 18.2207 19.75 18.5565 19.75 18.9707V19.9707C19.75 21.4895 18.5188 22.7207 17 22.7207H7C5.48122 22.7207 4.25 21.4895 4.25 19.9707V5.9707C4.25 4.45192 5.48122 3.2207 7 3.2207H17C18.5188 3.2207 19.75 4.45192 19.75 5.9707V6.9707C19.75 7.38492 19.4142 7.7207 19 7.7207C18.5858 7.7207 18.25 7.38492 18.25 6.9707V5.9707C18.25 5.28035 17.6904 4.7207 17 4.7207H7Z" fill="black"/>
</svg>
