<svg width="192" height="26" viewBox="0 0 192 26" fill="none" xmlns="http://www.w3.org/2000/svg">
<path d="M19.3032 17.8011H10.5134V25.2123H25.766V9.87305H19.3032V17.8011Z" fill="#A3D6D8"/>
<path d="M9.4792 9.87402H0V25.213H9.4792V9.87402Z" fill="white"/>
<path d="M19.3032 9.87305H10.5134V17.8013H19.3032V9.87305Z" fill="white"/>
<path d="M25.766 0.800781H10.4268V8.72856H25.766V0.800781Z" fill="white"/>
<path d="M9.4792 0.800781H0V8.72904H9.4792V0.800781Z" fill="white"/>
<path d="M43.858 10.3891H34.0315V4.93007H43.858V0.5625H28.572V25.6751H34.0315V15.8483H43.858V10.3891Z" fill="white"/>
<path d="M57.3786 0.556641H49.9062L42.2153 25.6827H48.1057L49.9062 19.1193H57.1261L59.0614 25.6827H65.2041L57.3786 0.556641ZM50.7309 14.7604L52.2287 9.59388C52.6326 8.14645 53.0026 6.02621 53.3899 4.93215H53.4573C53.8273 6.02621 54.2818 8.11299 54.7362 9.59388L56.3011 14.7604H50.7309Z" fill="white"/>
<path d="M78.6182 4.7065C80.6354 4.7065 82.2437 5.15423 83.4037 5.64048L84.5618 1.11957C83.5529 0.597219 81.3095 0 78.3559 0C70.7299 0 64.5991 4.78112 64.5991 13.3709C64.5991 20.5426 69.0858 25.9977 77.7952 25.9977C80.8598 25.9977 83.2159 25.4005 84.2633 24.8781L83.4037 20.4318C82.282 20.8796 80.3755 21.2527 78.6546 21.2527C73.5706 21.2527 70.5788 18.0786 70.5788 13.0341C70.5788 7.4319 74.093 4.7065 78.6182 4.7065Z" fill="white"/>
<path d="M91.8994 14.7566H100.634V10.3893H91.8994V4.93007H101.726V0.5625H86.4402V25.6753H101.726V21.3077H91.8994V14.7566Z" fill="white"/>
<path d="M118.099 12.017V11.9496C120.286 10.9061 122.154 8.81958 122.154 6.56431C122.154 4.29242 120.841 2.57562 119.075 1.65031C117.24 0.556249 114.935 0.219727 111.451 0.219727C108.607 0.219727 106.099 0.455389 103.911 0.74136V25.4806C105.005 25.6657 107.429 25.8506 110.239 25.8506C115.237 25.8506 118.384 25.0259 120.219 23.5618C121.784 22.2997 122.979 20.4987 122.979 18.2268C122.979 14.9791 120.286 12.808 118.099 12.017ZM109.364 4.51147C110.458 4.44383 110.811 4.37691 112.057 4.37691C112.713 4.37691 113.302 4.44383 113.807 4.56202C114.009 4.61233 114.194 4.66288 114.362 4.74713C114.531 4.79792 114.682 4.88169 114.833 4.94909C115.726 5.43727 116.213 6.22802 116.213 7.28838C116.213 8.4496 115.642 9.35855 114.497 9.89703C114.144 10.0487 113.74 10.183 113.268 10.267C113.066 10.3007 112.831 10.3344 112.595 10.3513H112.562C112.292 10.3681 112.023 10.3847 111.737 10.3847H109.364V4.51147H109.364ZM111.821 21.6267C110.862 21.6267 110.458 21.6267 109.364 21.5424V14.7602H111.804C114.649 14.7602 116.802 15.6186 116.802 18.1599C116.802 20.7683 114.396 21.6267 111.821 21.6267Z" fill="white"/>
<path d="M138.126 0.556641H130.653L122.945 25.6827H128.853L130.653 19.1193H137.873L139.808 25.6827H145.951L138.126 0.556641ZM131.478 14.7604L132.976 9.59388C133.379 8.14645 133.75 6.02621 134.137 4.93215H134.204C134.575 6.02621 135.029 8.11299 135.483 9.59388L137.048 14.7604H131.478Z" fill="white"/>
<path d="M162.87 7.73057C162.87 11.5406 163.177 14.7566 163.552 18.0323H163.439C162.317 15.8485 160.822 12.2467 159.327 9.59517L154.094 0.562741H147.583V25.6751H153.043V18.0029C153.043 13.8934 152.783 10.3452 152.634 7.02046L152.652 6.98411C153.889 9.93554 155.487 13.2288 156.982 15.9188L162.317 25.6748H168.329V0.5625H162.87V7.73057Z" fill="white"/>
<path d="M183.216 11.2499L191.552 0.5625H184.56L178.84 8.82126C178.282 9.71914 177.682 10.3893 177.121 11.4809H177.064V0.5625H171.604V25.6753H177.064V17.3674L179.205 14.761L185.346 25.6753H192L183.216 11.2499Z" fill="white"/>
</svg>
