<svg width="24" height="24" viewBox="0 0 24 24" fill="none" xmlns="http://www.w3.org/2000/svg">
<path fill-rule="evenodd" clip-rule="evenodd" d="M12 2.75C6.89137 2.75 2.75 6.89137 2.75 12C2.75 14.2514 3.55356 16.314 4.89074 17.9183L18.0592 5.0106C16.4356 3.60171 14.3178 2.75 12 2.75ZM19.1093 6.08174L5.94081 18.9894C7.56438 20.3983 9.68218 21.25 12 21.25C17.1086 21.25 21.25 17.1086 21.25 12C21.25 9.74858 20.4464 7.68604 19.1093 6.08174ZM1.25 12C1.25 6.06294 6.06294 1.25 12 1.25C15.007 1.25 17.7268 2.48564 19.677 4.47497C21.5771 6.41323 22.75 9.07039 22.75 12C22.75 17.9371 17.9371 22.75 12 22.75C8.99296 22.75 6.27316 21.5144 4.32299 19.525C2.42288 17.5868 1.25 14.9296 1.25 12Z" fill="black"/>
</svg>
