<svg width="24" height="24" viewBox="0 0 24 24" fill="none" xmlns="http://www.w3.org/2000/svg">
<path fill-rule="evenodd" clip-rule="evenodd" d="M18.6688 20.25C19.4349 20.25 20.0208 19.5671 19.9043 18.8099L18.5197 9.80993C18.4259 9.20014 17.9012 8.75 17.2842 8.75H6.7159C6.09894 8.75 5.57425 9.20014 5.48044 9.80993L4.09583 18.8099C3.97933 19.5671 4.56518 20.25 5.33129 20.25H7.50007C7.91428 20.25 8.25007 20.5858 8.25007 21C8.25007 21.4142 7.91428 21.75 7.50007 21.75H5.33129C3.64585 21.75 2.35699 20.2477 2.61327 18.5818L3.99788 9.58184C4.20427 8.24031 5.35858 7.25 6.7159 7.25H17.2842C18.6415 7.25 19.7959 8.2403 20.0022 9.58184L21.3869 18.5818C21.6431 20.2477 20.3543 21.75 18.6688 21.75H16.5001C16.0859 21.75 15.7501 21.4142 15.7501 21C15.7501 20.5858 16.0859 20.25 16.5001 20.25H18.6688Z" fill="black"/>
<path fill-rule="evenodd" clip-rule="evenodd" d="M11.4697 11.4697C11.7626 11.1768 12.2374 11.1768 12.5303 11.4697L15.5303 14.4697C15.8232 14.7626 15.8232 15.2374 15.5303 15.5303C15.2374 15.8232 14.7626 15.8232 14.4697 15.5303L12.75 13.8107V19C12.75 19.4142 12.4142 19.75 12 19.75C11.5858 19.75 11.25 19.4142 11.25 19V13.8107L9.53033 15.5303C9.23744 15.8232 8.76256 15.8232 8.46967 15.5303C8.17678 15.2374 8.17678 14.7626 8.46967 14.4697L11.4697 11.4697Z" fill="black"/>
<path fill-rule="evenodd" clip-rule="evenodd" d="M12 3.75C11.3096 3.75 10.75 4.30964 10.75 5C10.75 5.41421 10.4142 5.75 10 5.75C9.58579 5.75 9.25 5.41421 9.25 5C9.25 3.48122 10.4812 2.25 12 2.25C13.5188 2.25 14.75 3.48122 14.75 5C14.75 5.41421 14.4142 5.75 14 5.75C13.5858 5.75 13.25 5.41421 13.25 5C13.25 4.30964 12.6904 3.75 12 3.75Z" fill="black"/>
</svg>
