<svg width="16" height="17" viewBox="0 0 16 17" fill="none" xmlns="http://www.w3.org/2000/svg">
<path fill-rule="evenodd" clip-rule="evenodd" d="M7.94293 2.68118C7.92988 2.68887 7.9162 2.70113 7.9045 2.72468L6.17283 6.21282C6.09984 6.35984 5.95933 6.46168 5.79689 6.48529L1.92432 7.04809C1.83425 7.06118 1.80652 7.16525 1.86507 7.22194L4.66674 9.93517C4.78549 10.0502 4.83972 10.2164 4.81162 10.3793L4.15042 14.2124C4.14601 14.238 4.14985 14.2551 4.15544 14.268C4.16189 14.2829 4.17382 14.2986 4.19158 14.3115C4.20933 14.3243 4.22873 14.3311 4.24631 14.3328C4.26186 14.3342 4.28103 14.3322 4.30536 14.3195L7.76838 12.5087C7.91351 12.4329 8.08661 12.4329 8.23174 12.5087L11.6948 14.3195C11.7191 14.3322 11.7383 14.3342 11.7538 14.3328C11.7714 14.3311 11.7908 14.3243 11.8086 14.3115C11.8263 14.2986 11.8382 14.2829 11.8447 14.268C11.8503 14.2551 11.8541 14.238 11.8497 14.2124L11.1885 10.3793C11.1604 10.2164 11.2146 10.0502 11.3334 9.93517L14.1351 7.22194C14.1936 7.16525 14.1659 7.06118 14.0758 7.04809L10.2032 6.48529C10.0408 6.46168 9.90029 6.35984 9.8273 6.21282L8.09562 2.72468C8.08393 2.70113 8.07024 2.68887 8.0572 2.68118C8.04235 2.67243 8.02255 2.6665 8.00006 2.6665C7.97758 2.6665 7.95778 2.67243 7.94293 2.68118ZM7.00881 2.28001C7.41491 1.462 8.58522 1.462 8.99132 2.28001L10.6064 5.53338L14.2196 6.05848C15.1233 6.18981 15.4916 7.30026 14.8307 7.94029L12.2189 10.4697L12.8351 14.0424C12.9916 14.9493 12.0371 15.627 11.2314 15.2057L8.00006 13.5161L4.76872 15.2057C3.96301 15.627 3.00855 14.9493 3.16498 14.0424L3.78126 10.4697L1.16939 7.94029C0.508498 7.30026 0.876839 6.18981 1.7805 6.05848L5.39368 5.53338L7.00881 2.28001Z" fill="#1F2836"/>
</svg>
