<svg width="18" height="22" viewBox="0 0 18 22" fill="none" xmlns="http://www.w3.org/2000/svg">
<path fill-rule="evenodd" clip-rule="evenodd" d="M5.0976 3.35C2.8215 3.35 1.35 4.9097 1.35 7.3244L1.35 14.6756C1.35 17.0903 2.8215 18.65 5.0976 18.65H12.8988C15.1776 18.65 16.65 17.0903 16.65 14.6756V7.3244C16.65 4.9097 15.1776 3.35 12.9006 3.35L5.0976 3.35ZM12.8988 20H5.0976C2.0484 20 0 17.8598 0 14.6756L0 7.3244C0 4.1402 2.0484 2 5.0976 2L12.9006 2C15.9507 2 18 4.1402 18 7.3244V14.6756C18 17.8598 15.9507 20 12.8988 20Z" fill="#6194F5"/>
<path fill-rule="evenodd" clip-rule="evenodd" d="M8.9946 15.275C8.622 15.275 8.3196 14.9726 8.3196 14.6V11C8.3196 10.6274 8.622 10.325 8.9946 10.325C9.3672 10.325 9.6696 10.6274 9.6696 11V14.6C9.6696 14.9726 9.3672 15.275 8.9946 15.275Z" fill="#6194F5"/>
<path fill-rule="evenodd" clip-rule="evenodd" d="M8.99901 8.48369C8.50131 8.48369 8.09451 8.08139 8.09451 7.58369C8.09451 7.08599 8.49321 6.68369 8.99001 6.68369H8.99901C9.49671 6.68369 9.89901 7.08599 9.89901 7.58369C9.89901 8.08139 9.49671 8.48369 8.99901 8.48369Z" fill="#6194F5"/>
</svg>
