<svg width="17" height="16" viewBox="0 0 17 16" fill="none" xmlns="http://www.w3.org/2000/svg">
<path fill-rule="evenodd" clip-rule="evenodd" d="M8.49992 8.5C6.19873 8.5 4.33325 10.3655 4.33325 12.6667V13.3333C4.33325 13.6095 4.10939 13.8333 3.83325 13.8333C3.55711 13.8333 3.33325 13.6095 3.33325 13.3333V12.6667C3.33325 9.8132 5.64645 7.5 8.49992 7.5C11.3534 7.5 13.6666 9.8132 13.6666 12.6667V13.3333C13.6666 13.6095 13.4427 13.8333 13.1666 13.8333C12.8904 13.8333 12.6666 13.6095 12.6666 13.3333V12.6667C12.6666 10.3655 10.8011 8.5 8.49992 8.5Z" fill="#677587"/>
<path fill-rule="evenodd" clip-rule="evenodd" d="M8.49992 3.16675C7.3033 3.16675 6.33325 4.1368 6.33325 5.33341C6.33325 6.53003 7.3033 7.50008 8.49992 7.50008C9.69654 7.50008 10.6666 6.53003 10.6666 5.33341C10.6666 4.1368 9.69654 3.16675 8.49992 3.16675ZM5.33325 5.33341C5.33325 3.58451 6.75102 2.16675 8.49992 2.16675C10.2488 2.16675 11.6666 3.58451 11.6666 5.33341C11.6666 7.08232 10.2488 8.50008 8.49992 8.50008C6.75102 8.50008 5.33325 7.08232 5.33325 5.33341Z" fill="#677587"/>
</svg>
