<svg width="17" height="18" viewBox="0 0 17 18" fill="none" xmlns="http://www.w3.org/2000/svg">
<path d="M8.5 2.41875V3.9375" stroke="#00A4A7" stroke-width="1.35" stroke-linecap="round" stroke-linejoin="round"/>
<path d="M8.5 14.0625V15.5813" stroke="#00A4A7" stroke-width="1.35" stroke-linecap="round" stroke-linejoin="round"/>
<path d="M12.0438 6.46875C12.0438 6.13634 11.9783 5.80719 11.8511 5.50008C11.7239 5.19298 11.5374 4.91393 11.3024 4.67889C11.0673 4.44384 10.7883 4.25739 10.4812 4.13018C10.1741 4.00297 9.84492 3.9375 9.51251 3.9375H7.23439C6.56306 3.9375 5.91922 4.20418 5.44452 4.67889C4.96982 5.15359 4.70314 5.79742 4.70314 6.46875C4.70314 7.14008 4.96982 7.78391 5.44452 8.25861C5.91922 8.73332 6.56306 9 7.23439 9H10.0188C10.6901 9 11.3339 9.26668 11.8086 9.74139C12.2833 10.2161 12.55 10.8599 12.55 11.5313C12.55 12.2026 12.2833 12.8464 11.8086 13.3211C11.3339 13.7958 10.6901 14.0625 10.0188 14.0625H6.98126C6.30993 14.0625 5.6661 13.7958 5.1914 13.3211C4.7167 12.8464 4.45001 12.2026 4.45001 11.5313" stroke="#00A4A7" stroke-width="1.35" stroke-linecap="round" stroke-linejoin="round"/>
</svg>
